<svg width="150" height="150" viewBox="0 0 150 150" fill="none" xmlns="http://www.w3.org/2000/svg">
<g clip-path="url(#clip0)">
<path d="M44.0585 92.647H18.1609C19.3926 88.0109 22.5453 84.0715 26.9868 81.8503L35.5903 77.5488C40.8135 74.9371 44.0582 69.6874 44.0582 63.8476C44.0582 55.4012 37.1865 48.5294 28.74 48.5294H24.0826C15.6362 48.5294 8.7644 55.4012 8.7644 63.8476V66.1765H17.5879V63.8476C17.5879 60.2665 20.5015 57.3529 24.0826 57.3529H28.7403C32.3215 57.3529 35.235 60.2665 35.235 63.8476C35.235 66.3235 33.8594 68.5494 31.6447 69.6568L23.0409 73.9585C14.2347 78.3618 8.7644 87.2132 8.7644 97.0588V101.471H44.0585V92.647Z" fill="#F0811A"/>
<path d="M74.9409 70.5882H68.8606C64.9154 70.5882 61.7057 67.3785 61.7057 63.4332V48.5294H52.8821V63.4332C52.8821 72.2438 60.0501 79.4118 68.8606 79.4118H74.9409V101.471H83.7644V48.5294H74.9409V70.5882Z" fill="#F0811A"/>
<path d="M124.74 101.316L141.236 48.5294H107.294V57.3529H129.234L116.318 98.684L124.74 101.316Z" fill="#F0811A"/>
<path d="M92.588 70.5883H105.823V79.4118H92.588V70.5883Z" fill="#222121"/>
<path d="M70.5292 0H79.3527V17.6471H70.5292V0Z" fill="#222121"/>
<path d="M50.512 9.67041L59.0356 7.38511L62.0827 18.7501L53.5591 21.0354L50.512 9.67041Z" fill="#222121"/>
<path d="M32.1487 18.5294L39.7899 14.1177L45.6724 24.3062L38.0312 28.7179L32.1487 18.5294Z" fill="#222121"/>
<path d="M16.7035 31.8295L22.9417 25.5912L31.2594 33.9089L25.0211 40.1471L16.7035 31.8295Z" fill="#222121"/>
<path d="M87.8259 18.7565L90.8731 7.39148L99.3966 9.67677L96.3495 21.0418L87.8259 18.7565Z" fill="#222121"/>
<path d="M104.208 24.3097L110.09 14.1212L117.731 18.533L111.849 28.7215L104.208 24.3097Z" fill="#222121"/>
<path d="M118.599 33.9198L126.917 25.6022L133.155 31.8404L124.837 40.158L118.599 33.9198Z" fill="#222121"/>
<path d="M70.5292 132.353H79.3527V150H70.5292V132.353Z" fill="#222121"/>
<path d="M50.526 140.344L53.5731 128.979L62.0966 131.264L59.0495 142.629L50.526 140.344Z" fill="#222121"/>
<path d="M32.1464 131.47L38.0288 121.282L45.67 125.693L39.7875 135.882L32.1464 131.47Z" fill="#222121"/>
<path d="M16.6945 118.16L25.0121 109.842L31.2504 116.08L22.9327 124.398L16.6945 118.16Z" fill="#222121"/>
<path d="M87.8382 131.232L96.3617 128.947L99.4089 140.312L90.8853 142.597L87.8382 131.232Z" fill="#222121"/>
<path d="M104.206 125.688L111.847 121.277L117.73 131.465L110.089 135.877L104.206 125.688Z" fill="#222121"/>
<path d="M118.59 116.091L124.828 109.853L133.146 118.17L126.908 124.409L118.59 116.091Z" fill="#222121"/>
</g>
<defs>
<clipPath id="clip0">
<rect width="150" height="150" fill="white"/>
</clipPath>
</defs>
</svg>
