<svg width="50" height="50" viewBox="0 0 50 50" fill="none" xmlns="http://www.w3.org/2000/svg">
<g clip-path="url(#clip0)">
<path d="M25.0001 25.6122C28.1333 25.6122 35.5 21.8413 35.5 12.8058C35.5 11.5454 35.4694 10.3279 35.3655 9.17734C35.195 6.91372 34.7313 4.90752 33.577 3.37004C32.0962 1.2776 29.5053 0 25.0001 0C20.4957 0 17.9049 1.27721 16.4241 3.36887C15.2691 4.90674 14.8051 6.91346 14.6346 9.17786C14.5307 10.3282 14.5001 11.5456 14.5001 12.8058C14.5001 21.8413 21.8668 25.6122 25.0001 25.6122ZM28.4274 4.69153C28.1216 5.46443 27.9684 5.85094 27.6624 6.6237C25.6871 6.06562 24.3127 6.06562 22.3375 6.6237C22.0315 5.85094 21.8785 5.46443 21.5724 4.69153C24.0427 3.9437 25.9574 3.94383 28.4274 4.69153ZM16.0622 10.8469C16.1831 11.1116 16.6971 12.1288 17.4925 12.2241C18.407 12.3339 19.9249 8.98564 25.0001 8.97746C30.0751 8.98564 31.5931 12.3339 32.5076 12.2241C33.3031 12.1287 33.817 11.1115 33.9379 10.8469C33.9626 11.4952 33.9715 12.1515 33.9715 12.806C33.9715 17.2225 32.0213 19.959 30.3854 21.4769C28.324 23.3896 26.0353 24.0838 25.0001 24.0838C23.9647 24.0838 21.6761 23.3896 19.6147 21.4769C17.9788 19.959 16.0286 17.2225 16.0286 12.806C16.0286 12.1515 16.0375 11.4952 16.0622 10.8469Z" fill="#222121"/>
<path d="M44.4935 38.7457C43.9575 35.4125 42.8539 31.1188 40.6403 29.5928C39.1287 28.5506 33.8546 25.7328 31.6024 24.5297L31.5644 24.5094C31.3068 24.3719 30.9927 24.3994 30.7631 24.5797C29.5834 25.5058 28.291 26.13 26.9221 26.4348C26.6803 26.4887 26.4818 26.6605 26.3939 26.8921L25.6438 28.8692H24.3561L23.6061 26.8921C23.5182 26.6605 23.3197 26.4887 23.0779 26.4348C21.709 26.13 20.4167 25.5058 19.2369 24.5797C19.0073 24.3994 18.693 24.3717 18.4356 24.5094C16.2103 25.6986 10.8718 28.5738 9.36617 29.5884C6.81799 31.3051 5.70391 37.5177 5.5065 38.7457C5.48689 38.8675 5.49818 38.9921 5.53936 39.1084C5.60105 39.2826 6.69253 42.1055 12.6617 43.9145V44.5154C12.6617 44.8825 12.9595 45.1801 13.3265 45.1801L21.5494 45.1869C21.3912 46.0928 21.0532 47.5846 20.3763 49.0587C20.2816 49.2641 20.2981 49.5037 20.4209 49.6944C20.5431 49.8853 20.754 50.0003 20.9804 50.0003H29.0191C29.2454 50.0003 29.4565 49.8852 29.5787 49.6944C29.7008 49.5037 29.7175 49.2641 29.6235 49.0587C28.9469 47.5847 28.6081 46.0928 28.4497 45.1869L36.6733 45.1801C37.0402 45.1801 37.3382 44.8825 37.3382 44.5154V43.9145C43.3073 42.1055 44.3988 39.2826 44.4605 39.1084C44.5018 38.9921 44.5131 38.8674 44.4935 38.7457ZM35.1821 43.3382H34.0202V43.1089C34.0202 42.7695 33.745 42.4942 33.4055 42.4942C33.0659 42.4942 32.7909 42.7694 32.7909 43.1089V43.3382H32.0155V43.1089C32.0155 42.7695 31.7405 42.4942 31.4009 42.4942C31.0618 42.4942 30.7863 42.7694 30.7863 43.1089V43.3382H14.8173V30.7109H35.1821V43.3382Z" fill="#222121"/>
<path d="M22.3929 37.8082C21.9238 37.8082 21.4833 37.9912 21.1522 38.3233C20.7002 38.7767 20.5317 39.4402 20.7122 40.0551C20.7227 40.0908 20.7513 40.1185 20.7875 40.1277C20.8236 40.1366 20.8619 40.1262 20.8883 40.0999L21.9915 38.9933C22.0577 39.0201 22.2246 39.1118 22.5332 39.4196C22.8481 39.7335 22.9379 39.9005 22.9631 39.9583L21.858 41.0668C21.8316 41.0932 21.8212 41.1316 21.8306 41.1676C21.8399 41.2037 21.8676 41.2323 21.9034 41.2427C22.0625 41.2889 22.2273 41.3123 22.3934 41.3123C22.8624 41.3123 23.303 41.1294 23.6339 40.7973C24.1533 40.2763 24.275 39.5078 24.0018 38.8694L25.0337 37.8376L25.4702 38.2741L25.1725 38.5718C25.1078 38.6366 25.0721 38.7225 25.0721 38.8141C25.0721 38.9057 25.1078 38.9918 25.1725 39.0565L27.2751 41.159C27.3398 41.2237 27.4259 41.2594 27.5174 41.2594C27.609 41.2594 27.6951 41.2237 27.7599 41.159L28.8989 40.02C28.9637 39.9552 28.9993 39.8691 28.9993 39.7775C28.9993 39.686 28.9636 39.5999 28.8989 39.5351L26.7965 37.4325C26.7316 37.3678 26.6455 37.3321 26.5539 37.3321C26.4623 37.3321 26.3763 37.3678 26.3115 37.4325L26.0139 37.7302L25.5774 37.2936L26.9156 35.9554C27.1313 36.0481 27.3654 36.0977 27.6072 36.0977C28.0763 36.0977 28.5168 35.9149 28.8479 35.5828C29.2997 35.1294 29.4684 34.4659 29.2882 33.8509C29.2777 33.815 29.2491 33.7875 29.213 33.7783C29.1769 33.7691 29.1386 33.7797 29.1122 33.8061L28.0088 34.9129C27.9425 34.886 27.7758 34.7944 27.467 34.4866C27.1521 34.1726 27.0624 34.0056 27.0372 33.9478L28.1423 32.8393C28.1686 32.8129 28.179 32.7745 28.1697 32.7385C28.1603 32.7024 28.1327 32.6738 28.0968 32.6634C27.9377 32.6173 27.7729 32.5938 27.6071 32.5938C27.1379 32.5938 26.6974 32.7768 26.3665 33.1089C25.8471 33.63 25.7254 34.3984 25.9985 35.0368L24.6595 36.3758L23.2887 35.0048C23.2876 35.003 23.2875 35.0008 23.2865 34.999L22.6603 33.9254C22.6495 33.9069 22.6347 33.891 22.6172 33.8788L21.5608 33.1459C21.5022 33.1053 21.4234 33.1125 21.3733 33.1627L20.9027 33.6332C20.8525 33.6835 20.8454 33.7624 20.886 33.8209L21.6191 34.8772C21.6313 34.8947 21.6473 34.9095 21.6657 34.9203L22.739 35.5463C22.7411 35.5475 22.7433 35.5479 22.7454 35.549L24.1159 36.9196L23.0848 37.9507C22.8688 37.8578 22.6347 37.8082 22.3929 37.8082ZM25.9204 38.7907C25.9953 38.7159 26.1169 38.7159 26.1915 38.7909L27.5407 40.1399C27.6155 40.2148 27.6156 40.3363 27.5407 40.4112C27.4657 40.486 27.3442 40.486 27.2694 40.4112L25.9204 39.0622C25.8453 38.9871 25.8453 38.8657 25.9204 38.7907ZM26.5306 38.1806C26.6056 38.1055 26.727 38.1055 26.8021 38.1806L28.151 39.5295C28.2259 39.6043 28.2259 39.7258 28.151 39.8008C28.0763 39.8756 27.9546 39.8756 27.8797 39.8007L26.5306 38.4519C26.4558 38.3767 26.4558 38.2554 26.5306 38.1806Z" fill="#F0811A"/>
</g>
<defs>
<clipPath id="clip0">
<rect width="50" height="50" fill="white"/>
</clipPath>
</defs>
</svg>
