<svg width="150" height="150" viewBox="0 0 150 150" fill="none" xmlns="http://www.w3.org/2000/svg">
<path d="M83.1644 127.125C76.1531 130.109 68.7002 131.621 61.0136 131.621C29.7937 131.622 4.39453 106.221 4.39453 74.9991C4.39453 43.7774 29.7937 18.3765 61.0136 18.3765C92.2335 18.3765 117.633 43.7774 117.633 74.9991C117.633 76.9116 117.536 78.8417 117.346 80.7355C117.224 81.9431 118.105 83.02 119.312 83.1413C120.52 83.2632 121.597 82.3822 121.718 81.1749C121.923 79.1358 122.027 77.0578 122.027 74.9991C122.027 41.3543 94.6567 13.9819 61.0136 13.9819C27.3706 13.9819 0 41.3543 0 74.9991C0 108.644 27.3706 136.016 61.0136 136.016C69.295 136.016 77.3267 134.385 84.8853 131.169C86.0021 130.693 86.5218 129.403 86.0466 128.287C85.5714 127.17 84.2806 126.65 83.1644 127.125Z" fill="#222121"/>
<path d="M83.1843 114.33C76.4566 118.132 68.7902 120.141 61.0136 120.141C36.1239 120.141 15.8745 99.8904 15.8745 74.9992C15.8745 50.108 36.1239 29.8574 61.0136 29.8574C85.9036 29.8574 106.153 50.108 106.153 74.9992C106.153 76.9258 106.03 78.8635 105.789 80.7587C105.636 81.9625 106.487 83.0626 107.691 83.2161C108.892 83.3688 109.995 82.518 110.148 81.3142C110.413 79.2353 110.547 77.1106 110.547 74.9992C110.547 47.6849 88.3265 25.4629 61.0136 25.4629C33.7007 25.4629 11.4802 47.6849 11.4802 74.9992C11.4802 102.314 33.701 124.536 61.0139 124.536C69.5463 124.536 77.9604 122.33 85.3464 118.156C86.4026 117.559 86.7755 116.219 86.1785 115.163C85.5814 114.106 84.2402 113.733 83.1843 114.33Z" fill="#222121"/>
<path d="M148.318 98.6646C149.363 97.4974 150 95.9567 150 94.27C150 90.6352 147.043 87.6782 143.409 87.6782H97.6327C93.9981 87.6782 91.0412 90.6352 91.0412 94.27C91.0412 95.9567 91.6781 97.4974 92.7237 98.6646C91.6778 99.8318 91.0412 101.372 91.0412 103.059C91.0412 104.746 91.6781 106.286 92.7237 107.454C91.6778 108.621 91.0412 110.162 91.0412 111.848C91.0412 113.535 91.6781 115.076 92.7237 116.243C91.6778 117.41 91.0412 118.951 91.0412 120.637C91.0412 122.324 91.6781 123.865 92.724 125.032C91.6781 126.199 91.0412 127.739 91.0412 129.426C91.0412 133.061 93.9984 136.018 97.633 136.018H143.408C147.043 136.018 150 133.061 150 129.426C150 127.74 149.363 126.199 148.317 125.032C149.363 123.865 150 122.324 150 120.637C150 118.951 149.363 117.41 148.318 116.243C149.363 115.076 150 113.535 150 111.848C150 110.162 149.363 108.621 148.318 107.454C149.363 106.286 150 104.746 150 103.059C150 101.372 149.363 99.8315 148.318 98.6646ZM97.6327 92.0728H143.409C144.62 92.0728 145.605 93.0583 145.605 94.27C145.605 95.4818 144.62 96.4673 143.409 96.4673H115.803C114.589 96.4673 113.606 97.4511 113.606 98.6646C113.606 99.878 114.589 100.862 115.803 100.862H143.409C144.62 100.862 145.605 101.847 145.605 103.059C145.605 104.271 144.62 105.256 143.409 105.256H97.6327C96.4213 105.256 95.4357 104.271 95.4357 103.059C95.4357 101.847 96.4213 100.862 97.6327 100.862H105.663C106.877 100.862 107.861 99.878 107.861 98.6646C107.861 97.4511 106.877 96.4673 105.663 96.4673H97.6327C96.4213 96.4673 95.4357 95.4818 95.4357 94.27C95.4357 93.0583 96.4213 92.0728 97.6327 92.0728ZM145.605 111.848C145.605 113.06 144.62 114.045 143.409 114.045H135.771C134.557 114.045 133.574 115.029 133.574 116.243C133.574 117.456 134.557 118.44 135.771 118.44H143.409C144.62 118.44 145.605 119.426 145.605 120.637C145.605 121.849 144.62 122.835 143.409 122.835H97.6327C96.4213 122.835 95.4357 121.849 95.4357 120.637C95.4357 119.426 96.4213 118.44 97.6327 118.44H125.423C126.637 118.44 127.62 117.456 127.62 116.243C127.62 115.029 126.637 114.045 125.423 114.045H97.6327C96.4213 114.045 95.4357 113.06 95.4357 111.848C95.4357 110.636 96.4213 109.651 97.6327 109.651H143.409C144.62 109.651 145.605 110.636 145.605 111.848ZM143.408 131.624H97.633C96.4213 131.624 95.4357 130.638 95.4357 129.426C95.4357 128.215 96.4213 127.229 97.633 127.229H143.408C144.62 127.229 145.605 128.215 145.605 129.426C145.605 130.638 144.62 131.624 143.408 131.624Z" fill="#F0811A"/>
<path d="M58.5947 67.8865H69.6493C73.5308 67.8865 76.6887 64.7286 76.6887 60.8468C76.6887 56.9649 73.5308 53.807 69.6493 53.807H58.5947C57.3812 53.807 56.3974 54.7908 56.3974 56.0043V65.6892C56.3974 66.9027 57.3812 67.8865 58.5947 67.8865ZM60.7919 58.2018H69.6493C71.1077 58.2018 72.2942 59.3884 72.2942 60.8471C72.2942 62.3057 71.1077 63.4923 69.6493 63.4923H60.7919V58.2018Z" fill="#F0811A"/>
<path d="M69.2631 76.6576C77.9906 76.6576 85.091 69.5569 85.091 60.8288C85.091 52.1007 77.9906 45 69.2631 45H53.8142C50.1797 45 47.2227 47.9569 47.2227 51.5918V63.474H43.3415C39.7069 63.474 36.75 66.4309 36.75 70.0658C36.75 73.7007 39.7069 76.6576 43.3415 76.6576H47.2227V80.8476H43.3415C39.7069 80.8476 36.75 83.8046 36.75 87.4394C36.75 91.0743 39.7069 94.0312 43.3415 94.0312H47.2227V97.7815C47.2227 101.416 50.1797 104.373 53.8142 104.373C57.4488 104.373 60.4058 101.416 60.4058 97.7815V94.0312H65.5324C69.167 94.0312 72.1242 91.0743 72.1242 87.4394C72.1242 83.8046 69.1673 80.8476 65.5324 80.8476H60.4058V76.6576H69.2631ZM58.2085 85.2422H65.5324C66.7438 85.2422 67.7297 86.2277 67.7297 87.4394C67.7297 88.6511 66.7441 89.6367 65.5324 89.6367H58.2085C56.995 89.6367 56.0112 90.6205 56.0112 91.834V97.7815C56.0112 98.9932 55.0257 99.9788 53.8142 99.9788C52.6028 99.9788 51.6173 98.9932 51.6173 97.7815V91.834C51.6173 90.6205 50.6335 89.6367 49.42 89.6367H43.3415C42.1301 89.6367 41.1445 88.6511 41.1445 87.4394C41.1445 86.2277 42.1301 85.2422 43.3415 85.2422H49.42C50.6335 85.2422 51.6173 84.2584 51.6173 83.0449V74.4603C51.6173 73.2469 50.6335 72.2631 49.42 72.2631H43.3415C42.1301 72.2631 41.1445 71.2775 41.1445 70.0658C41.1445 68.8541 42.1301 67.8685 43.3415 67.8685H49.42C50.6335 67.8685 51.6173 66.8848 51.6173 65.6713V51.5918C51.6173 50.3801 52.6028 49.3945 53.8142 49.3945H69.2631C75.5675 49.3945 80.6965 54.5238 80.6965 60.8288C80.6965 67.1338 75.5675 72.2631 69.2631 72.2631H58.2085C56.995 72.2631 56.0112 73.2469 56.0112 74.4603V83.0449C56.0112 84.2584 56.995 85.2422 58.2085 85.2422Z" fill="#F0811A"/>
</svg>
