<svg width="130" height="130" viewBox="0 0 130 130" fill="none" xmlns="http://www.w3.org/2000/svg">
<g clip-path="url(#clip0)">
<path d="M13.9807 28.9166C14.4369 29.2608 14.9735 29.4274 15.5051 29.4274C16.2728 29.4274 17.0325 29.0813 17.5324 28.4237L17.581 28.3602C18.4399 27.2523 18.2386 25.6575 17.1307 24.7976C16.0229 23.9386 14.427 24.14 13.5681 25.2479C13.5552 25.2647 13.4858 25.355 13.4729 25.3718C12.6358 26.4926 12.8639 28.0746 13.9807 28.9166Z" fill="#222121"/>
<path d="M110.962 19.038C98.6852 6.76125 82.3618 0 65 0C61.8391 0 58.7039 0.231094 55.6154 0.68039C55.5212 0.689316 55.4279 0.703201 55.3357 0.722046C42.7148 2.61147 30.8903 8.17558 21.3232 16.861C20.2847 17.8032 20.2074 19.409 21.1496 20.4474C22.0918 21.4858 23.6976 21.5632 24.736 20.621C25.2964 20.1122 25.8677 19.6182 26.4449 19.1322L29.5801 24.5625C23.9336 28.2441 19.1025 33.0753 15.4208 38.7217L12.1111 36.8105C12.5773 35.9377 13.0633 35.0758 13.5731 34.2258C14.2951 33.0227 13.9043 31.4635 12.7023 30.7425C11.4992 30.0204 9.94003 30.4112 9.21799 31.6133C8.22319 33.2726 7.30774 34.9726 6.46965 36.7063C6.45576 36.7341 6.44188 36.7619 6.42899 36.7896C2.21077 45.5464 0 55.1889 0 65C0 66.4024 1.13663 67.5391 2.53906 67.5391H10.1562C11.5587 67.5391 12.6953 66.4024 12.6953 65C12.6953 41.1993 32.0586 21.8359 55.8594 21.8359C65.0387 21.8359 73.9879 24.7787 81.3531 30.1702L60.9008 50.6226C59.2891 50.0552 57.601 49.7656 55.8594 49.7656C47.4596 49.7656 40.625 56.5993 40.625 65C40.625 73.3997 47.4596 80.2344 55.8594 80.2344C64.2601 80.2344 71.0938 73.3997 71.0938 65C71.0938 63.2584 70.8041 61.5703 70.2368 59.9586L90.6892 39.5062C96.0807 46.8715 99.0234 55.8207 99.0234 65C99.0234 66.4024 100.16 67.5391 101.562 67.5391C102.964 67.5391 104.102 66.4024 104.102 65C104.102 57.3531 102.272 49.8489 98.8449 43.1135L115.831 33.3064C121.167 41.834 124.421 51.7899 124.868 62.4609H119.581C118.178 62.4609 117.042 63.5976 117.042 65C117.042 66.4024 118.178 67.5391 119.581 67.5391H127.461C128.862 67.5391 130 66.4024 130 65C130 47.6382 123.239 31.3148 110.962 19.038ZM7.68364 62.4609H5.13168C5.43816 55.182 7.06375 48.0468 9.90829 41.4016L12.8768 43.1155C9.88052 48.9771 8.04565 55.5271 7.68364 62.4609ZM85.4474 8.67447L77.7459 22.0135C71.7573 18.9676 65.1627 17.1853 58.3984 16.8282V5.44312C60.5795 5.20309 62.7823 5.07812 65 5.07812C72.1778 5.07812 79.063 6.34964 85.4474 8.67447ZM30.5025 16.003C37.3579 11.1689 45.1249 7.84828 53.3203 6.22566V16.8253C46.3865 17.1863 39.8365 19.0202 33.9748 22.0174L30.5025 16.003ZM92.0698 30.9438L89.1003 33.9133C89.0993 33.9143 89.0993 33.9143 89.0993 33.9153L56.9365 66.0771C56.3533 66.6613 55.3664 66.6613 54.7823 66.0771C54.1991 65.4929 54.1991 64.5061 54.7823 63.9229L89.9155 28.7896C90.2002 28.5049 90.582 28.3482 90.9927 28.3482C91.4023 28.3482 91.7851 28.5049 92.0698 28.7896C92.3544 29.0742 92.5111 29.4561 92.5111 29.8667C92.5111 30.2773 92.3544 30.6592 92.0698 30.9438ZM66.0156 65C66.0156 70.5998 61.4592 75.1562 55.8594 75.1562C50.2596 75.1562 45.7031 70.5998 45.7031 65C45.7031 59.3992 50.2596 54.8438 55.8594 54.8438C56.1242 54.8438 56.386 54.8566 56.6459 54.8765L51.1909 60.3315C48.6171 62.9063 48.6171 67.0937 51.1909 69.6675C52.4783 70.9549 54.1693 71.5986 55.8594 71.5986C57.5494 71.5986 59.2405 70.9549 60.5279 69.6675L65.9819 64.2125C66.0017 64.4733 66.0156 64.7352 66.0156 65ZM96.3068 38.7157C95.679 37.7477 95.0155 36.8015 94.3163 35.8781L95.6602 34.5342C96.9039 33.2915 97.5893 31.6331 97.5893 29.8667C97.5893 28.1003 96.9039 26.442 95.6602 25.1982C94.4164 23.9545 92.7591 23.2701 90.9927 23.2701C89.2262 23.2701 87.5679 23.9555 86.3242 25.1992L84.9802 26.5421C84.0578 25.8429 83.1107 25.1804 82.1436 24.5515L90.1804 10.6313C99.2129 14.8317 107.031 21.217 112.952 29.106L96.3068 38.7157Z" fill="#222121"/>
<path d="M112.286 62.4609H112.218C110.815 62.4609 109.679 63.5976 109.679 65C109.679 66.4024 110.815 67.5391 112.218 67.5391H112.286C113.688 67.5391 114.825 66.4024 114.825 65C114.825 63.5976 113.688 62.4609 112.286 62.4609Z" fill="#222121"/>
<path d="M68.6906 107.115C70.092 107.115 71.2296 105.977 71.2296 104.576C71.2296 103.173 70.092 102.037 68.6906 102.037H60.5656C59.1631 102.037 58.0265 103.173 58.0265 104.576V119.336C58.0265 120.738 59.1631 121.875 60.5656 121.875H68.6906C70.092 121.875 71.2296 120.738 71.2296 119.336C71.2296 117.934 70.092 116.797 68.6906 116.797H63.1046V114.495H64.6281C66.0295 114.495 67.1671 113.358 67.1671 111.956C67.1671 110.553 66.0295 109.417 64.6281 109.417H63.1046V107.115H68.6906Z" fill="#F0811A"/>
<path d="M48.75 102.037H45.0594C43.6579 102.037 42.5203 103.173 42.5203 104.576V119.336C42.5203 120.738 43.6579 121.875 45.0594 121.875C46.4618 121.875 47.5985 120.738 47.5985 119.336V114.495H48.75C52.1846 114.495 54.9796 111.7 54.9796 108.265C54.9796 104.831 52.1846 102.037 48.75 102.037ZM48.75 109.417H47.5985V107.115H48.75C49.3738 107.115 49.9015 107.641 49.9015 108.265C49.9015 108.889 49.3738 109.417 48.75 109.417Z" fill="#F0811A"/>
<path d="M84.9395 107.115C86.342 107.115 87.4786 105.977 87.4786 104.576C87.4786 103.173 86.342 102.037 84.9395 102.037H76.8155C75.4131 102.037 74.2765 103.173 74.2765 104.576V119.336C74.2765 120.738 75.4131 121.875 76.8155 121.875H84.9395C86.342 121.875 87.4786 120.738 87.4786 119.336C87.4786 117.934 86.342 116.797 84.9395 116.797H79.3546V114.495H80.878C82.2795 114.495 83.4171 113.358 83.4171 111.956C83.4171 110.553 82.2795 109.417 80.878 109.417H79.3546V107.115H84.9395Z" fill="#F0811A"/>
<path d="M97.1271 102.037H93.0646C91.6631 102.037 90.5255 103.173 90.5255 104.576V119.336C90.5255 120.738 91.6631 121.875 93.0646 121.875H97.1271C100.768 121.875 103.729 118.913 103.729 115.273V108.638C103.729 104.997 100.768 102.037 97.1271 102.037ZM98.6505 115.273C98.6505 116.1 97.9533 116.797 97.1271 116.797H95.6036V107.115H97.1271C97.9533 107.115 98.6505 107.812 98.6505 108.638V115.273Z" fill="#F0811A"/>
<path d="M32.5 107.115H36.9354C38.3369 107.115 39.4745 105.977 39.4745 104.576C39.4745 103.173 38.3369 102.037 36.9354 102.037H32.5C29.0653 102.037 26.2714 104.831 26.2714 108.265C26.2714 111.7 29.0653 114.495 32.5 114.495C32.627 114.495 32.7509 114.482 32.8719 114.464C32.9939 114.483 33.1179 114.495 33.2449 114.495C33.8687 114.495 34.3954 115.022 34.3954 115.646C34.3954 116.27 33.8687 116.797 33.2449 116.797H28.8094C27.408 116.797 26.2704 117.934 26.2704 119.336C26.2704 120.738 27.408 121.875 28.8094 121.875H33.2449C36.6796 121.875 39.4735 119.081 39.4735 115.646C39.4735 112.211 36.6796 109.417 33.2449 109.417C33.1179 109.417 32.9939 109.429 32.8719 109.447C32.7509 109.429 32.627 109.417 32.5 109.417C31.8762 109.417 31.3495 108.889 31.3495 108.265C31.3495 107.641 31.8762 107.115 32.5 107.115Z" fill="#F0811A"/>
<path d="M105.252 93.9116H24.7479C21.1069 93.9116 18.1464 96.8732 18.1464 100.513V123.398C18.1464 127.038 21.1069 130 24.7479 130H105.252C108.892 130 111.854 127.038 111.854 123.398V100.513C111.854 96.8732 108.893 93.9116 105.252 93.9116ZM106.776 123.398C106.776 124.225 106.078 124.922 105.252 124.922H24.7479C23.9217 124.922 23.2245 124.225 23.2245 123.398V100.513C23.2245 99.687 23.9217 98.9897 24.7479 98.9897H105.252C106.078 98.9897 106.776 99.687 106.776 100.513V123.398Z" fill="#222121"/>
</g>
<defs>
<clipPath id="clip0">
<rect width="130" height="130" fill="white"/>
</clipPath>
</defs>
</svg>
